<!DOCTYPE svg PUBLIC "-//W3C//DTD SVG 1.1//EN" "http://www.w3.org/Graphics/SVG/1.1/DTD/svg11.dtd">
<!-- Uploaded to: SVG Repo, www.svgrepo.com, Transformed by: SVG Repo Mixer Tools -->
<svg width="181px" height="181px" viewBox="-6 -6 72.00 72.00" version="1.1" xmlns="http://www.w3.org/2000/svg" xmlns:xlink="http://www.w3.org/1999/xlink" xmlns:sketch="http://www.bohemiancoding.com/sketch/ns" fill="#c93131" stroke="#c93131">
<g id="SVGRepo_bgCarrier" stroke-width="0" transform="translate(0,0), scale(1)">
<path transform="translate(-6, -6), scale(2.25)" d="M16,30.895366579490272C20.246373526780157,31.138080993748606,23.454083489964606,27.375463391000572,25.908724962904284,23.901944475670952C28.15242538984296,20.726924433346355,29.942525114227898,16.765466417325484,28.550457801181704,13.135439906271326C27.28264451105486,9.829424592862033,22.895110816360063,9.819826455676905,19.829183474625466,8.048618583539014C16.126879388698516,5.909771373176859,13.230817093318903,0.4224771482832941,9.251300088665827,1.9861802350687565C5.269962838018177,3.550598565507432,5.996585011071406,9.370023361492997,5.621791227329087,13.631241571779256C5.333359786745147,16.910563055617953,5.7205916967336226,20.023547883167936,7.416672947899745,22.844974912124403C9.542951480960248,26.382034071372917,11.879759069165754,30.6598616579793,16,30.895366579490272" fill="#7ed0ec" strokewidth="0"/>
</g>
<g id="SVGRepo_tracerCarrier" stroke-linecap="round" stroke-linejoin="round"/>
<g id="SVGRepo_iconCarrier"> <!-- Uploaded to: SVG Repo, www.svgrepo.com, Transformed by: SVG Repo Mixer Tools --> <title>Movierollsmall</title> <desc>Created with Sketch.</desc> <defs> </defs> <g id="colored" stroke="none" stroke-width="1" fill="none" fill-rule="evenodd" sketch:type="MSPage"> <g id="Photo_sliced" sketch:type="MSLayerGroup" transform="translate(-600.000000, 0.000000)"> </g> <g id="Photo" sketch:type="MSLayerGroup" transform="translate(-594.000000, 3.000000)" stroke="#40b6d4" stroke-width="2" stroke-linecap="round" stroke-linejoin="round"> <g id="Movierollsmall" transform="translate(597.000000, 7.000000)" sketch:type="MSShapeGroup"> <path d="M20.5,41 C31.8218374,41 41,31.8218374 41,20.5 C41,9.17816263 31.8218374,0 20.5,0 C9.17816263,0 0,9.17816263 0,20.5 C0,31.8218374 9.17816263,41 20.5,41 Z M20.5,11 C22.4329966,11 24,9.43299662 24,7.5 C24,5.56700338 22.4329966,4 20.5,4 C18.5670034,4 17,5.56700338 17,7.5 C17,9.43299662 18.5670034,11 20.5,11 Z M27.9437984,14.5972539 C29.1602726,16.0994745 31.3642101,16.3311176 32.8664306,15.1146434 C34.3686512,13.8981692 34.6002943,11.6942317 33.3838201,10.1920112 C32.1673459,8.68979069 29.9634084,8.45814752 28.4611879,9.67462171 C26.9589674,10.8910959 26.7273242,13.0950334 27.9437984,14.5972539 Z M29.7637676,22.6054435 C29.328938,24.4888975 30.5032801,26.3682377 32.3867342,26.8030674 C34.2701882,27.237897 36.1495285,26.0635549 36.5843581,24.1801008 C37.0191877,22.2966468 35.8448456,20.4173065 33.9613915,19.9824769 C32.0779375,19.5476473 30.1985973,20.7219894 29.7637676,22.6054435 Z M24.6061896,29.0668161 C22.8688237,29.9141861 22.1473395,32.0095284 22.9947094,33.7468943 C23.8420794,35.4842602 25.9374218,36.2057444 27.6747876,35.3583744 C29.4121535,34.5110045 30.1336377,32.4156621 29.2862678,30.6782963 C28.4388978,28.9409304 26.3435555,28.2194462 24.6061896,29.0668161 Z M16.3938104,29.0668161 C14.6564445,28.2194462 12.5611022,28.9409304 11.7137322,30.6782963 C10.8663623,32.4156621 11.5878465,34.5110045 13.3252124,35.3583744 C15.0625782,36.2057444 17.1579206,35.4842602 18.0052906,33.7468943 C18.8526605,32.0095284 18.1311763,29.9141861 16.3938104,29.0668161 Z M11.2362324,22.6054435 C10.8014027,20.7219894 8.9220625,19.5476473 7.03860845,19.9824769 C5.15515441,20.4173065 3.98081229,22.2966468 4.41564191,24.1801008 C4.85047154,26.0635549 6.72981179,27.237897 8.61326583,26.8030674 C10.4967199,26.3682377 11.671062,24.4888975 11.2362324,22.6054435 Z M13.0562016,14.5972539 C14.2726758,13.0950334 14.0410326,10.8910959 12.5388121,9.67462171 C11.0365916,8.45814752 8.83265405,8.68979069 7.61617986,10.1920112 C6.39970567,11.6942317 6.63134884,13.8981692 8.13356936,15.1146434 C9.63578988,16.3311176 11.8397274,16.0994745 13.0562016,14.5972539 Z" id="Oval-1869" fill="#f5d189"> </path> <path d="M38.5,31.5 C38.5,31.5 42,42 51,41" id="Path-5680"> </path> </g> </g> </g> </g>
</svg>